<svg width="51" height="51" viewBox="0 0 51 51" fill="none" xmlns="http://www.w3.org/2000/svg">
<path d="M17.4453 44.543C19.1712 44.543 20.5703 43.1439 20.5703 41.418C20.5703 39.6921 19.1712 38.293 17.4453 38.293C15.7194 38.293 14.3203 39.6921 14.3203 41.418C14.3203 43.1439 15.7194 44.543 17.4453 44.543Z" fill="white"/>
<path d="M39.3203 44.543C41.0462 44.543 42.4453 43.1439 42.4453 41.418C42.4453 39.6921 41.0462 38.293 39.3203 38.293C37.5944 38.293 36.1953 39.6921 36.1953 41.418C36.1953 43.1439 37.5944 44.543 39.3203 44.543Z" fill="white"/>
<path d="M44.8672 12.5879C44.6477 12.3194 44.3711 12.1031 44.0576 11.9548C43.7441 11.8065 43.4015 11.7299 43.0547 11.7305H13.333L12.7344 8.33398C12.6705 7.9722 12.4813 7.64447 12.1998 7.40837C11.9183 7.17227 11.5627 7.04289 11.1953 7.04297H4.94531C4.53091 7.04297 4.13348 7.20759 3.84046 7.50061C3.54743 7.79364 3.38281 8.19107 3.38281 8.60547C3.38281 9.01987 3.54743 9.4173 3.84046 9.71032C4.13348 10.0033 4.53091 10.168 4.94531 10.168H9.88477L14.3438 35.4395C14.4076 35.8012 14.5969 36.129 14.8783 36.3651C15.1598 36.6012 15.5154 36.7305 15.8828 36.7305H40.8828C41.2972 36.7305 41.6946 36.5658 41.9877 36.2728C42.2807 35.9798 42.4453 35.5824 42.4453 35.168C42.4453 34.7536 42.2807 34.3561 41.9877 34.0631C41.6946 33.7701 41.2972 33.6055 40.8828 33.6055H17.1934L16.6426 30.4805H40.2422C40.7841 30.4798 41.309 30.2919 41.7283 29.9486C42.1476 29.6053 42.4354 29.1278 42.543 28.5967L45.3555 14.5342C45.4232 14.1939 45.4146 13.8427 45.3302 13.5061C45.2457 13.1696 45.0876 12.8559 44.8672 12.5879Z" fill="white"/>
</svg>
