<svg width="65" height="47" viewBox="0 0 65 47" fill="none" xmlns="http://www.w3.org/2000/svg">
<path fill-rule="evenodd" clip-rule="evenodd" d="M56.1266 9.49219H64.3674L41.2608 46.0102L35.7671 36.4767L29.4652 46.0102L25.9102 41.1625L35.7671 25.6503L41.0992 33.8915L56.1266 9.49219Z" fill="black"/>
<path fill-rule="evenodd" clip-rule="evenodd" d="M39.2957 23.7225L49.2802 9.49219H41.7215L38.5956 14.8579C36.7104 18.1493 38.1205 20.9696 39.2957 23.7225Z" fill="black"/>
<path fill-rule="evenodd" clip-rule="evenodd" d="M32.1347 23.3137L34.682 19.4545C31.7901 7.80192 25.2378 0.0701977 15.153 0.501549C3.45344 1.28257 -2.56971 13.6803 1.55607 22.5166L13.6439 44.6183C14.6596 46.3054 16.5824 46.3875 17.5978 44.7695L22.9004 34.5862L20.8504 30.594L15.7985 41.0747L5.33255 21.3293C1.74738 14.4567 7.45419 5.19053 15.153 4.5976C19.6642 3.98998 25.6276 8.34469 28.105 14.9447L32.1347 23.3134V23.3137Z" fill="black"/>
<path d="M16.3316 22.2296C18.6893 22.2296 20.6007 20.3182 20.6007 17.9605C20.6007 15.6027 18.6893 13.6914 16.3316 13.6914C13.9738 13.6914 12.0625 15.6027 12.0625 17.9605C12.0625 20.3182 13.9738 22.2296 16.3316 22.2296Z" fill="black"/>
</svg>
